<svg width="50" height="50" viewBox="0 0 50 50" fill="none" xmlns="http://www.w3.org/2000/svg">
<path d="M2.74298 33.4763L0.179504 41.8441H2.19669L2.65939 40.2849H5.15997L5.61017 41.8441H7.80372L5.24044 33.4763H2.74298ZM3.16603 38.6017L3.92755 35.9992L4.68048 38.6017H3.16603Z" fill="#00979C"/>
<path d="M12.6234 38.0265C12.5932 37.9941 12.5623 37.9634 12.5309 37.9347C12.5939 37.9109 12.6555 37.8855 12.7156 37.8578C12.9598 37.7457 13.1736 37.5955 13.3514 37.4125C13.5311 37.2277 13.6723 37.005 13.7709 36.7505C13.8686 36.4992 13.9182 36.2103 13.9182 35.8925C13.9182 35.4544 13.8391 35.0755 13.6836 34.766C13.5264 34.4529 13.2988 34.1951 13.0076 33.9996C12.725 33.8101 12.3813 33.6732 11.9857 33.5929C11.6057 33.5158 11.1775 33.4763 10.7137 33.4763H8.09688V41.8441H10.1037V38.5746H10.1633C10.3828 38.5746 10.5658 38.6228 10.7227 38.7224C10.8783 38.821 10.9977 38.9666 11.0881 39.1681L12.301 41.8441H14.6359L13.1623 38.8591C12.9838 38.4966 12.8074 38.2246 12.6234 38.0265ZM11.7506 36.4212C11.6926 36.5318 11.6121 36.6224 11.5045 36.6982C11.391 36.7779 11.2502 36.839 11.0854 36.88C10.9113 36.9236 10.7127 36.9455 10.4947 36.9455H10.1037V35.1839H10.5447C11.0041 35.1839 11.3455 35.256 11.5594 35.3984C11.7457 35.5224 11.8363 35.7314 11.8363 36.0376C11.8363 36.1857 11.8082 36.3113 11.7506 36.4212Z" fill="#00979C"/>
<path d="M20.5156 34.4701C20.1777 34.1304 19.7516 33.8761 19.249 33.7146C18.7592 33.5566 18.1826 33.4763 17.5356 33.4763H14.8815V41.8441H17.1918C17.9373 41.8441 18.5895 41.7425 19.1299 41.5423C19.6787 41.3394 20.1371 41.0449 20.492 40.6671C20.8463 40.2902 21.1104 39.8296 21.2764 39.2986C21.4393 38.7787 21.5217 38.1939 21.5217 37.5605C21.5217 36.8701 21.4391 36.2644 21.2758 35.7603C21.109 35.2439 20.8533 34.8099 20.5156 34.4701ZM18.8748 39.5554C18.5264 39.9425 18.0209 40.1306 17.3295 40.1306H16.8881V35.1898H17.4356C17.8225 35.1898 18.1473 35.2445 18.4006 35.3525C18.6463 35.457 18.8363 35.6046 18.9816 35.8035C19.1301 36.0074 19.2377 36.2632 19.3014 36.5634C19.3684 36.881 19.4025 37.249 19.4025 37.6572C19.4025 38.5279 19.225 39.1666 18.8748 39.5554Z" fill="#00979C"/>
<path d="M26.3559 38.7996C26.3559 39.088 26.3293 39.3339 26.2764 39.5304C26.2272 39.7138 26.1547 39.8636 26.0606 39.9755C25.9703 40.0832 25.86 40.1591 25.7234 40.2078C25.5748 40.2609 25.3848 40.2876 25.1582 40.2876C24.9186 40.2876 24.7209 40.257 24.5707 40.1962C24.4264 40.1376 24.3104 40.0539 24.2158 39.9404C24.1209 39.8261 24.0529 39.6828 24.0137 39.5136C23.9699 39.3269 23.9479 39.1072 23.9479 38.8599V33.4763H21.9412V38.9505C21.9412 39.4029 21.9973 39.8181 22.1074 40.1845C22.2221 40.5652 22.4111 40.8943 22.6695 41.1621C22.9279 41.4296 23.2662 41.6367 23.675 41.7767C24.0723 41.9136 24.5523 41.983 25.1018 41.983C25.593 41.983 26.0438 41.9136 26.441 41.7767C26.8473 41.6375 27.1975 41.4263 27.482 41.149C27.7668 40.8712 27.9877 40.5216 28.1387 40.1099C28.2871 39.7056 28.3625 39.2322 28.3625 38.7027V33.4763H26.3559V38.7996Z" fill="#00979C"/>
<path d="M29.3887 35.1597H31.1895V40.1488H29.3887V41.8441H35.0221V40.1488H33.2213V35.1597H35.0221V33.4763H29.3887V35.1597Z" fill="#00979C"/>
<path d="M40.6065 38.2443L38.3631 33.4763H36.0918V41.8441H37.9607V36.9855L40.216 41.8441H42.4758V33.4763H40.6065V38.2443Z" fill="#00979C"/>
<path d="M48.9723 34.4664C48.3863 33.7212 47.508 33.3435 46.3621 33.3435C45.8719 33.3435 45.4043 33.4304 44.9723 33.6017C44.5342 33.7753 44.1471 34.0457 43.8215 34.4058C43.4988 34.7628 43.2426 35.222 43.0604 35.7703C42.8801 36.3115 42.7887 36.9605 42.7887 37.6996C42.7887 39.0648 43.0791 40.1269 43.6518 40.857C44.2377 41.6042 45.116 41.983 46.2619 41.983C46.7524 41.983 47.2203 41.896 47.6524 41.7248C48.0906 41.5509 48.4775 41.2804 48.8027 40.9209C49.125 40.564 49.3813 40.105 49.5641 39.5564C49.744 39.0154 49.8354 38.3664 49.8354 37.6269C49.8354 36.2578 49.5449 35.1943 48.9723 34.4664ZM47.6516 38.8142C47.5941 39.123 47.5045 39.3834 47.3852 39.5882C47.2719 39.7834 47.1317 39.9263 46.9568 40.025C46.7826 40.1232 46.5656 40.173 46.3121 40.173C45.8106 40.173 45.4609 39.9863 45.2434 39.6025C45.0043 39.1808 44.883 38.5164 44.883 37.6269C44.883 37.2093 44.9131 36.8341 44.9729 36.5125C45.0303 36.2042 45.1205 35.9443 45.2416 35.7394C45.3568 35.5435 45.4975 35.4001 45.6715 35.3011C45.8432 35.2033 46.0586 35.1537 46.3121 35.1537C46.8176 35.1537 47.1682 35.34 47.3836 35.7232C47.6209 36.1451 47.7412 36.8101 47.7412 37.6996C47.7412 38.1183 47.7111 38.4933 47.6516 38.8142Z" fill="#00979C"/>
<path d="M46.9365 9.12891H47.2926V10.065H47.5451V9.12891H47.9041V8.89648H46.9365V9.12891Z" fill="#00979C"/>
<path d="M48.7828 8.89648L48.5393 9.69297L48.2873 8.89648H47.9578V10.065H48.1953V9.31855L48.4309 10.065H48.6477L48.8711 9.33789V10.065H49.1074V8.89648H48.7828Z" fill="#00979C"/>
<path d="M37.1631 31.5092C33.9818 31.5092 31.2619 30.4365 28.8682 28.2426C27.3895 26.8877 26.1703 25.2277 25.0486 23.5018C23.9272 25.2277 22.7078 26.8877 21.2293 28.2426C18.6572 30.5998 15.7084 31.6627 12.2158 31.4914C5.55547 31.4625 0.145905 26.2062 0.145905 19.7496C0.145905 13.2752 5.58516 8.00781 12.2709 8.00781C15.9295 8.00781 19.0098 9.21855 21.6869 11.709C22.9729 12.9053 24.0584 14.293 25.0486 15.7449C26.0389 14.293 27.1246 12.9053 28.4104 11.709C31.0875 9.21855 34.1678 8.00781 37.8264 8.00781C44.5123 8.00781 49.9514 13.2752 49.9514 19.7496C49.9514 26.2062 44.542 31.4625 37.8815 31.4914C37.6395 31.5033 37.3998 31.5092 37.1631 31.5092ZM27.4844 19.593C28.8113 21.7459 30.0992 23.7498 31.668 25.1873C33.4387 26.8102 35.3051 27.4777 37.7178 27.3502L37.8264 27.3473C42.227 27.3473 45.8072 23.9391 45.8072 19.7496C45.8072 15.5604 42.227 12.152 37.8264 12.152C35.2285 12.152 33.1334 12.9754 31.233 14.7432C29.8137 16.0637 28.6418 17.7555 27.4844 19.593ZM12.2709 12.152C7.87032 12.152 4.29005 15.5604 4.29005 19.7496C4.29005 23.9391 7.87032 27.3473 12.2709 27.3473L12.3797 27.3502C14.7926 27.4777 16.6586 26.8102 18.4293 25.1873C19.9981 23.7498 21.2861 21.7459 22.6129 19.593C21.4555 17.7555 20.2836 16.0637 18.8645 14.7432C16.9639 12.9754 14.8688 12.152 12.2709 12.152Z" fill="#00979C"/>
<path d="M38.3744 18.2436V15.9963H36.0354V18.2436H33.7883V20.5713H36.0354V22.8352H38.3744V20.5713H40.6217V18.2436H38.3744Z" fill="#00979C"/>
<path d="M8.90607 18.2155H16.2922V20.6162H8.90607V18.2155Z" fill="#00979C"/>
</svg>
