<svg width="50" height="50" viewBox="0 0 50 50" fill="none" xmlns="http://www.w3.org/2000/svg">
<path d="M25 0C38.8125 0 50 11.4705 50 25.6323C49.9987 31.003 48.3547 36.2379 45.2995 40.6004C42.2443 44.9629 37.9317 48.2332 32.9688 49.951C31.7187 50.2074 31.25 49.4063 31.25 48.7335C31.25 47.8684 31.2812 45.1129 31.2812 41.6846C31.2812 39.2816 30.5 37.7436 29.5938 36.9426C35.1562 36.3018 41 34.1231 41 24.2866C41 21.4671 40.0312 19.1922 38.4375 17.398C38.6875 16.7571 39.5625 14.1298 38.1875 10.6054C38.1875 10.6054 36.0938 9.90049 31.3125 13.2327C29.3125 12.656 27.1875 12.3676 25.0625 12.3676C22.9375 12.3676 20.8125 12.656 18.8125 13.2327C14.0313 9.93253 11.9375 10.6054 11.9375 10.6054C10.5625 14.1298 11.4375 16.7571 11.6875 17.398C10.0938 19.1922 9.125 21.4991 9.125 24.2866C9.125 34.091 14.9375 36.3018 20.5 36.9426C19.7812 37.5834 19.125 38.7048 18.9062 40.3709C17.4688 41.0438 13.875 42.1332 11.625 38.2563C11.1563 37.4873 9.75 35.5969 7.78125 35.629C5.6875 35.661 6.9375 36.8465 7.8125 37.3271C8.875 37.9359 10.0938 40.2107 10.375 40.9477C10.875 42.3895 12.5 45.145 18.7812 43.9595C18.7812 46.1062 18.8125 48.1247 18.8125 48.7335C18.8125 49.4063 18.3438 50.1753 17.0938 49.951C12.1145 48.2517 7.78355 44.988 4.71528 40.6229C1.64702 36.2578 -0.0027515 31.0129 3.44473e-06 25.6323C3.44473e-06 11.4705 11.1875 0 25 0Z" fill="white"/>
</svg>
