<svg width="50" height="50" viewBox="0 0 50 50" fill="none" xmlns="http://www.w3.org/2000/svg">
<path d="M33.3703 12.8469L34.6875 8.25782C35.3338 8.21212 35.9395 7.92558 36.3848 7.45486C36.83 6.98415 37.0825 6.36351 37.0922 5.71563C37.0754 5.02621 36.7898 4.37067 36.2962 3.889C35.8027 3.40732 35.1404 3.1377 34.4508 3.1377C33.7612 3.1377 33.0989 3.40732 32.6053 3.889C32.1118 4.37067 31.8261 5.02621 31.8094 5.71563C31.8126 6.16073 31.9328 6.59717 32.1579 6.98112C32.3831 7.36508 32.7053 7.68306 33.0922 7.90314L31.7969 12.4063C29.5668 11.8572 27.2795 11.574 24.9828 11.5625L24.4047 11.8125V46.6891L24.9828 46.875C28.4672 46.875 43.7125 36.6938 43.75 25.7672C43.75 17.9391 38.3688 14.425 33.3703 12.8469Z" fill="#D06E35"/>
<path d="M29.7 35.3125C26.7312 30.7188 27.9813 20.0266 35.7516 18.4984C37.0065 18.3631 38.2667 18.7013 39.2852 19.4467C40.3038 20.1921 41.0073 21.2911 41.2578 22.5281C43.1969 28.9063 31.7828 37.8328 29.7 35.3125Z" fill="white"/>
<path d="M34.3625 25.4688C33.9056 25.4841 33.4633 25.6336 33.0909 25.8987C32.7184 26.1637 32.4322 26.5325 32.2679 26.9591C32.1037 27.3858 32.0687 27.8513 32.1673 28.2977C32.2659 28.7441 32.4937 29.1516 32.8223 29.4693C33.151 29.7871 33.5659 30.001 34.0153 30.0846C34.4648 30.1681 34.9289 30.1174 35.3497 29.9389C35.7706 29.7604 36.1296 29.4619 36.3819 29.0807C36.6343 28.6995 36.7688 28.2525 36.7687 27.7953C36.7572 27.168 36.4975 26.5709 36.0464 26.1348C35.5954 25.6987 34.9898 25.4592 34.3625 25.4688Z" fill="#D06E35"/>
<path d="M35.0813 27.6156C34.966 27.6116 34.8545 27.5738 34.7606 27.5068C34.6667 27.4399 34.5945 27.3468 34.5532 27.2392C34.5118 27.1315 34.503 27.0141 34.5279 26.9015C34.5529 26.7889 34.6103 26.6861 34.6933 26.606C34.7762 26.5259 34.8808 26.4719 34.9942 26.4508C35.1076 26.4297 35.2247 26.4425 35.3308 26.4875C35.437 26.5325 35.5276 26.6078 35.5913 26.7039C35.655 26.8 35.689 26.9128 35.6891 27.0281C35.6858 27.1862 35.62 27.3367 35.5061 27.4465C35.3922 27.5563 35.2394 27.6181 35.0813 27.6156Z" fill="white"/>
<path d="M18.1406 12.5126L16.8547 7.83287C17.2266 7.60936 17.5346 7.29386 17.7492 6.91674C17.9637 6.53963 18.0776 6.11362 18.0797 5.67975C18.0629 4.99032 17.7773 4.33478 17.2837 3.85311C16.7902 3.37143 16.1279 3.10181 15.4383 3.10181C14.7487 3.10181 14.0864 3.37143 13.5928 3.85311C13.0993 4.33478 12.8136 4.99032 12.7969 5.67975C12.8084 6.36631 13.0914 7.02037 13.5839 7.49884C14.0764 7.97731 14.7384 8.24123 15.425 8.23287L16.7141 12.9204C11.6953 14.5313 6.25 18.0594 6.25 25.7672C6.36094 36.9094 21.4984 46.8751 24.9828 46.8751V11.5626C22.6729 11.6125 20.3767 11.9314 18.1406 12.5126Z" fill="#F17B36"/>
<path d="M20.7969 35.3125C18.7141 37.8375 7.29843 28.9063 9.23437 22.5282C9.48501 21.2893 10.1899 20.189 11.2105 19.4433C12.231 18.6977 13.4936 18.3607 14.75 18.4985C22.5187 20.0266 23.775 30.7188 20.8016 35.3172L20.7969 35.3125Z" fill="white"/>
<path d="M15.9844 25.5391C15.5275 25.5544 15.0852 25.7039 14.7128 25.969C14.3403 26.234 14.0541 26.6028 13.8898 27.0295C13.7256 27.4561 13.6906 27.9216 13.7892 28.368C13.8877 28.8144 14.1156 29.2219 14.4442 29.5396C14.7729 29.8574 15.1878 30.0714 15.6372 30.1549C16.0867 30.2384 16.5508 30.1877 16.9716 30.0092C17.3925 29.8307 17.7515 29.5322 18.0038 29.151C18.2561 28.7698 18.3907 28.3228 18.3906 27.8657C18.3791 27.2384 18.1194 26.6412 17.6683 26.2051C17.2173 25.769 16.6117 25.5295 15.9844 25.5391Z" fill="#F17B36"/>
<path d="M15.2656 27.6859C15.1504 27.6819 15.0389 27.6441 14.9449 27.5771C14.851 27.5102 14.7789 27.4171 14.7375 27.3095C14.6962 27.2018 14.6874 27.0844 14.7123 26.9718C14.7372 26.8592 14.7947 26.7565 14.8776 26.6763C14.9605 26.5962 15.0652 26.5422 15.1786 26.5211C15.292 26.5001 15.409 26.5128 15.5152 26.5578C15.6214 26.6028 15.712 26.6781 15.7757 26.7742C15.8394 26.8703 15.8734 26.9831 15.8734 27.0984C15.8722 27.1768 15.8556 27.2541 15.8244 27.3261C15.7933 27.398 15.7483 27.4632 15.692 27.5177C15.6357 27.5723 15.5692 27.6152 15.4963 27.6441C15.4234 27.6729 15.344 27.6871 15.2656 27.6859Z" fill="white"/>
</svg>
