<svg width="60" height="50" viewBox="0 0 60 50" fill="none" xmlns="http://www.w3.org/2000/svg">
<g clip-path="url(#clip0_236_90)">
<path d="M8.24675 0H60V40.5295C57.2208 43.6962 54.4325 46.8525 51.6377 50H0V9.34956C2.73766 6.22124 5.4987 3.11652 8.24675 0Z" fill="#41CD52"/>
<path d="M15.8922 10.5206C17.8571 9.0442 20.287 8.67104 22.5974 8.69464C24.7974 8.72561 27.1065 9.16366 28.9299 10.6548C30.2545 11.7123 31.1156 13.3451 31.6896 15.0339C32.6182 17.8067 32.8909 20.8008 32.9221 23.7477C32.926 26.7153 32.8078 29.7477 31.9429 32.5752C31.3636 34.4985 30.261 36.2064 28.8065 37.3923C29.8532 39.3185 30.9208 41.23 31.9675 43.1563C30.6519 43.8451 29.3403 44.5383 28.0234 45.2241C26.9026 43.1238 25.787 41.0191 24.6623 38.9218C23.1416 39.205 21.5857 39.1828 20.0571 38.9911C18.226 38.7418 16.3597 38.1076 14.9468 36.7079C13.861 35.6401 13.1792 34.146 12.713 32.6268C11.9494 30.0575 11.7442 27.323 11.7091 24.6268C11.6909 21.7123 11.8545 18.7522 12.6286 15.9557C13.2273 13.8525 14.2182 11.7536 15.8922 10.5206Z" fill="white"/>
<path d="M38.1987 10.4263C39.5753 10.4248 40.9519 10.4248 42.3286 10.4263C42.3325 12.4941 42.3273 14.5605 42.3312 16.6283C44.0909 16.6313 45.8506 16.6283 47.6104 16.6298C47.5805 17.972 47.548 19.3142 47.5143 20.6564C45.7558 20.6608 43.9987 20.6549 42.2403 20.6593C42.2442 24.0487 42.2312 27.4381 42.2467 30.8275C42.2805 31.7552 42.2623 32.7345 42.6221 33.5915C42.8844 34.2522 43.5909 34.4219 44.1662 34.444C45.2506 34.4396 46.3338 34.3673 47.4182 34.3452C47.4844 35.5782 47.548 36.8127 47.6104 38.0457C45.4532 38.4573 43.1896 38.9499 41.0467 38.18C40.1442 37.8761 39.3026 37.1962 38.9364 36.1829C38.2805 34.4587 38.2273 32.5398 38.1987 30.6888C38.1961 27.3452 38.1987 24.003 38.1974 20.6593C37.2377 20.6564 36.2779 20.6608 35.3182 20.6564C35.3156 19.3157 35.3156 17.9735 35.3182 16.6313C36.2779 16.6269 37.2364 16.6328 38.1961 16.6283C38.2 14.5605 38.1948 12.4941 38.1987 10.4263Z" fill="white"/>
<path d="M20.8455 12.9351C22.1818 12.7375 23.5844 12.7906 24.8494 13.3643C25.874 13.8245 26.7442 14.7257 27.2039 15.8673C27.9091 17.5974 28.1792 19.5074 28.3156 21.3938C28.4636 23.9041 28.4429 26.4381 28.1377 28.9336C27.9234 30.4189 27.6182 31.9838 26.7325 33.1549C25.8338 34.3304 24.4481 34.8348 23.1182 34.9528C21.7156 35.0693 20.2364 34.9528 18.9701 34.1991C18.2312 33.7522 17.6039 33.0516 17.2377 32.1932C16.7935 31.1652 16.5494 30.0428 16.3779 28.9189C15.861 25.3555 15.7364 21.6682 16.4429 18.1254C16.7338 16.7891 17.1571 15.4174 18.0169 14.41C18.7649 13.5472 19.8065 13.1018 20.8455 12.9351Z" fill="#41CD52"/>
</g>
<defs>
<clipPath id="clip0_236_90">
<rect width="60" height="50" fill="white"/>
</clipPath>
</defs>
</svg>
