<svg width="50" height="50" viewBox="0 0 50 50" fill="none" xmlns="http://www.w3.org/2000/svg">
<path d="M41.3594 8.90631C39.3108 6.09535 36.2904 4.14623 32.8851 3.43762C29.4798 2.72901 25.9327 3.3115 22.9328 5.07193L12.4375 11.5626C11.0307 12.4103 9.81895 13.5458 8.88161 14.8946C7.94428 16.2434 7.30254 17.775 6.99845 19.3891C6.49948 22.0889 6.94064 24.8782 8.24845 27.2922C7.3522 28.6102 6.73976 30.1 6.45001 31.6672C6.15175 33.3034 6.19198 34.9832 6.56821 36.6032C6.94444 38.2231 7.6487 39.7488 8.63751 41.086C10.6861 43.8972 13.7063 45.847 17.1116 46.5567C20.517 47.2664 24.0645 46.6854 27.0656 44.9266L37.5625 38.4376C38.9689 37.5892 40.1803 36.4536 41.1176 35.1049C42.0548 33.7562 42.6968 32.2249 43.0016 30.611C43.5037 27.9092 43.0624 25.1169 41.7516 22.7016C42.6488 21.3841 43.2618 19.8941 43.5516 18.3266C43.8498 16.69 43.8091 15.0095 43.432 13.3892C43.055 11.7689 42.3495 10.2432 41.3594 8.90631Z" fill="#FF3E00"/>
<path d="M21.9094 41.625C20.2683 42.0458 18.5387 41.9642 16.9446 41.3905C15.3505 40.8169 13.9654 39.7778 12.9688 38.4078C12.372 37.6046 11.9465 36.6875 11.7185 35.7132C11.4906 34.7389 11.4652 33.7282 11.6438 32.7437C11.7032 32.4204 11.7862 32.1018 11.8922 31.7906L12.0906 31.2046L12.6281 31.5765C13.8759 32.4652 15.2639 33.138 16.7344 33.5671L17.1172 33.6812L17.0781 34.0515C17.0332 34.5902 17.1835 35.127 17.5016 35.564C17.8006 35.9869 18.2215 36.3086 18.7081 36.4862C19.1947 36.6638 19.7239 36.6887 20.225 36.5578C20.4514 36.4989 20.6679 36.4068 20.8672 36.2843L31.3359 29.7937C31.5909 29.6392 31.8106 29.4329 31.9809 29.1883C32.1513 28.9437 32.2685 28.6661 32.325 28.3734C32.3813 28.0783 32.3765 27.7748 32.311 27.4816C32.2454 27.1884 32.1204 26.9117 31.9438 26.6687C31.6431 26.2554 31.2254 25.9418 30.7446 25.7685C30.2638 25.5953 29.742 25.5703 29.2469 25.6968C29.0193 25.7558 28.8018 25.8485 28.6016 25.9718L24.5828 28.4468C23.9223 28.8556 23.2037 29.1622 22.4516 29.3562C20.8092 29.7782 19.078 29.6969 17.4824 29.123C15.8867 28.549 14.5004 27.5089 13.5031 26.1375C12.9103 25.3317 12.4892 24.4128 12.2659 23.4378C12.0425 22.4627 12.0217 21.4522 12.2047 20.4687C12.3891 19.4999 12.775 18.5807 13.3373 17.7705C13.8995 16.9603 14.6257 16.2773 15.4688 15.7656L25.95 9.27495C26.6106 8.86669 27.3292 8.56063 28.0813 8.36714C29.7237 7.94424 31.4553 8.02487 33.0513 8.59858C34.6473 9.17228 36.034 10.2126 37.0313 11.5843C37.628 12.3875 38.0534 13.3046 38.2813 14.2789C38.5092 15.2532 38.5348 16.2639 38.3563 17.2484C38.297 17.5718 38.214 17.8904 38.1078 18.2015L37.9094 18.7875L37.3719 18.4171C36.1249 17.5273 34.7366 16.8543 33.2656 16.4265L32.8828 16.3109L32.9219 15.9406C32.9668 15.4017 32.8159 14.8647 32.4969 14.4281C32.1971 14.0142 31.7797 13.7002 31.299 13.5269C30.8182 13.3535 30.2965 13.3289 29.8016 13.4562C29.5749 13.5149 29.3583 13.6076 29.1594 13.7312L18.6563 20.2C18.4013 20.3537 18.1816 20.5595 18.0117 20.804C17.8418 21.0485 17.7255 21.3261 17.6703 21.6187C17.6126 21.914 17.6166 22.2181 17.6822 22.5118C17.7479 22.8054 17.8736 23.0823 18.0516 23.325C18.3524 23.738 18.7702 24.0513 19.251 24.2242C19.7318 24.3972 20.2534 24.422 20.7484 24.2953C20.9758 24.2361 21.1932 24.144 21.3938 24.0218L25.3969 21.5453C26.0571 21.1363 26.7758 20.8302 27.5281 20.6375C29.1706 20.2154 30.9019 20.2965 32.4977 20.8701C34.0935 21.4438 35.4803 22.4835 36.4781 23.8546C37.0733 24.6585 37.4973 25.5759 37.7238 26.5501C37.9504 27.5244 37.9747 28.5347 37.7953 29.5187C37.6122 30.4886 37.2269 31.409 36.6645 32.2201C36.1021 33.0312 35.3753 33.7149 34.5313 34.2265L24.0516 40.7171C23.3913 41.1261 22.6727 41.4322 21.9203 41.625" fill="white"/>
</svg>
