<svg width="50" height="50" viewBox="0 0 50 50" fill="none" xmlns="http://www.w3.org/2000/svg">
<path d="M14.0625 21.4062C15.5208 15.5729 19.1667 12.6562 25 12.6562C33.75 12.6562 34.8438 19.2187 39.2188 20.3125C42.1354 21.0417 44.6875 19.9479 46.875 17.0312C45.4167 22.8646 41.7708 25.7812 35.9375 25.7812C27.1875 25.7812 26.0938 19.2188 21.7188 18.125C18.8021 17.3958 16.25 18.4896 14.0625 21.4062ZM3.125 34.5312C4.58333 28.6979 8.22917 25.7812 14.0625 25.7812C22.8125 25.7812 23.9062 32.3437 28.2812 33.4375C31.1979 34.1667 33.75 33.0729 35.9375 30.1562C34.4792 35.9896 30.8333 38.9062 25 38.9062C16.25 38.9062 15.1562 32.3438 10.7812 31.25C7.86458 30.5208 5.3125 31.6146 3.125 34.5312Z" fill="#44A8B3"/>
</svg>
