<svg xmlns="http://www.w3.org/2000/svg" version="1.1" xmlns:xlink="http://www.w3.org/1999/xlink" xmlns:svgjs="http://svgjs.dev/svgjs" viewBox="0 0 1422 800" opacity="1"><defs><linearGradient x1="50%" y1="0%" x2="50%" y2="100%" id="oooscillate-grad"><stop stop-color="#FFFF5A" stop-opacity="1" offset="0%"></stop><stop stop-color="#FF63FF" stop-opacity="1" offset="100%"></stop></linearGradient></defs><g stroke-width="3.5" stroke="url(#oooscillate-grad)" fill="none" stroke-linecap="round"><path d="M 0 1100 Q 355.5 90 711 400 Q 1066.5 710 1422 1100" stroke-dasharray="86 50" opacity="0.28"></path><path d="M 0 1075 Q 355.5 90 711 400 Q 1066.5 710 1422 1075" stroke-dasharray="12 28" opacity="0.51"></path><path d="M 0 1050 Q 355.5 90 711 400 Q 1066.5 710 1422 1050" stroke-dasharray="119 81" opacity="0.41"></path><path d="M 0 1025 Q 355.5 90 711 400 Q 1066.5 710 1422 1025" stroke-dasharray="5 116" opacity="0.09"></path><path d="M 0 1000 Q 355.5 90 711 400 Q 1066.5 710 1422 1000" stroke-dasharray="116 126" opacity="0.45"></path><path d="M 0 975 Q 355.5 90 711 400 Q 1066.5 710 1422 975" stroke-dasharray="15 90" opacity="0.80"></path><path d="M 0 950 Q 355.5 90 711 400 Q 1066.5 710 1422 950" stroke-dasharray="14 116" opacity="0.90"></path><path d="M 0 925 Q 355.5 90 711 400 Q 1066.5 710 1422 925" stroke-dasharray="133 108" opacity="0.24"></path><path d="M 0 900 Q 355.5 90 711 400 Q 1066.5 710 1422 900" stroke-dasharray="40 138" opacity="0.25"></path><path d="M 0 875 Q 355.5 90 711 400 Q 1066.5 710 1422 875" stroke-dasharray="75 76" opacity="0.66"></path><path d="M 0 850 Q 355.5 90 711 400 Q 1066.5 710 1422 850" stroke-dasharray="37 96" opacity="0.27"></path><path d="M 0 825 Q 355.5 90 711 400 Q 1066.5 710 1422 825" stroke-dasharray="21 58" opacity="0.61"></path><path d="M 0 800 Q 355.5 90 711 400 Q 1066.5 710 1422 800" stroke-dasharray="125 123" opacity="0.90"></path><path d="M 0 775 Q 355.5 90 711 400 Q 1066.5 710 1422 775" stroke-dasharray="33 2" opacity="0.96"></path><path d="M 0 750 Q 355.5 90 711 400 Q 1066.5 710 1422 750" stroke-dasharray="25 78" opacity="0.54"></path><path d="M 0 725 Q 355.5 90 711 400 Q 1066.5 710 1422 725" stroke-dasharray="104 65" opacity="0.73"></path><path d="M 0 700 Q 355.5 90 711 400 Q 1066.5 710 1422 700" stroke-dasharray="106 46" opacity="0.83"></path><path d="M 0 675 Q 355.5 90 711 400 Q 1066.5 710 1422 675" stroke-dasharray="60 74" opacity="0.45"></path><path d="M 0 650 Q 355.5 90 711 400 Q 1066.5 710 1422 650" stroke-dasharray="140 104" opacity="0.17"></path><path d="M 0 625 Q 355.5 90 711 400 Q 1066.5 710 1422 625" stroke-dasharray="12 114" opacity="0.88"></path><path d="M 0 600 Q 355.5 90 711 400 Q 1066.5 710 1422 600" stroke-dasharray="88 1" opacity="0.40"></path><path d="M 0 575 Q 355.5 90 711 400 Q 1066.5 710 1422 575" stroke-dasharray="31 98" opacity="0.37"></path><path d="M 0 550 Q 355.5 90 711 400 Q 1066.5 710 1422 550" stroke-dasharray="108 121" opacity="0.54"></path><path d="M 0 525 Q 355.5 90 711 400 Q 1066.5 710 1422 525" stroke-dasharray="79 50" opacity="0.17"></path><path d="M 0 500 Q 355.5 90 711 400 Q 1066.5 710 1422 500" stroke-dasharray="146 52" opacity="0.86"></path><path d="M 0 475 Q 355.5 90 711 400 Q 1066.5 710 1422 475" stroke-dasharray="109 126" opacity="0.95"></path><path d="M 0 450 Q 355.5 90 711 400 Q 1066.5 710 1422 450" stroke-dasharray="14 105" opacity="0.26"></path><path d="M 0 425 Q 355.5 90 711 400 Q 1066.5 710 1422 425" stroke-dasharray="145 122" opacity="0.41"></path><path d="M 0 400 Q 355.5 90 711 400 Q 1066.5 710 1422 400" stroke-dasharray="44 138" opacity="0.53"></path><path d="M 0 375 Q 355.5 90 711 400 Q 1066.5 710 1422 375" stroke-dasharray="31 60" opacity="0.63"></path><path d="M 0 350 Q 355.5 90 711 400 Q 1066.5 710 1422 350" stroke-dasharray="88 11" opacity="0.60"></path><path d="M 0 325 Q 355.5 90 711 400 Q 1066.5 710 1422 325" stroke-dasharray="105 38" opacity="0.65"></path><path d="M 0 300 Q 355.5 90 711 400 Q 1066.5 710 1422 300" stroke-dasharray="144 81" opacity="0.53"></path><path d="M 0 275 Q 355.5 90 711 400 Q 1066.5 710 1422 275" stroke-dasharray="119 130" opacity="0.61"></path><path d="M 0 250 Q 355.5 90 711 400 Q 1066.5 710 1422 250" stroke-dasharray="37 124" opacity="0.09"></path><path d="M 0 225 Q 355.5 90 711 400 Q 1066.5 710 1422 225" stroke-dasharray="1 96" opacity="0.52"></path><path d="M 0 200 Q 355.5 90 711 400 Q 1066.5 710 1422 200" stroke-dasharray="145 136" opacity="0.31"></path><path d="M 0 175 Q 355.5 90 711 400 Q 1066.5 710 1422 175" stroke-dasharray="120 25" opacity="0.58"></path><path d="M 0 150 Q 355.5 90 711 400 Q 1066.5 710 1422 150" stroke-dasharray="102 39" opacity="0.27"></path><path d="M 0 125 Q 355.5 90 711 400 Q 1066.5 710 1422 125" stroke-dasharray="47 120" opacity="0.80"></path><path d="M 0 100 Q 355.5 90 711 400 Q 1066.5 710 1422 100" stroke-dasharray="10 18" opacity="0.14"></path><path d="M 0 75 Q 355.5 90 711 400 Q 1066.5 710 1422 75" stroke-dasharray="4 32" opacity="0.19"></path><path d="M 0 50 Q 355.5 90 711 400 Q 1066.5 710 1422 50" stroke-dasharray="38 122" opacity="0.63"></path></g></svg>