<svg width="519" height="119" viewBox="0 0 519 119" fill="none" xmlns="http://www.w3.org/2000/svg">
<mask id="path-1-outside-1_240_100" maskUnits="userSpaceOnUse" x="9.41095" y="8.60001" width="501" height="101" fill="black">
<rect fill="white" x="9.41095" y="8.60001" width="501" height="101"/>
<path d="M13.2909 31.4H32.491V28.2H13.2909V31.4ZM30.211 17V45H33.611V17H30.211ZM11.4109 17V45H14.8109V17H11.4109ZM41.8847 45H56.0047V41.8H41.8847V45ZM41.8847 20.2H56.0047V17H41.8847V20.2ZM41.8847 31.4H55.2047V28.2H41.8847V31.4ZM40.0047 17V45H43.4047V17H40.0047ZM61.9969 17V45H76.3969V41.8H65.3969V17H61.9969ZM80.0047 17V45H94.4047V41.8H83.4047V17H80.0047ZM98.8016 31C98.8016 28.8933 99.2549 27.0133 100.162 25.36C101.095 23.7067 102.362 22.4 103.962 21.44C105.562 20.48 107.375 20 109.402 20C111.455 20 113.268 20.48 114.842 21.44C116.442 22.4 117.695 23.7067 118.602 25.36C119.535 27.0133 120.002 28.8933 120.002 31C120.002 33.1067 119.535 34.9867 118.602 36.64C117.695 38.2933 116.442 39.6 114.842 40.56C113.268 41.52 111.455 42 109.402 42C107.375 42 105.562 41.52 103.962 40.56C102.362 39.6 101.095 38.2933 100.162 36.64C99.2549 34.9867 98.8016 33.1067 98.8016 31ZM95.2016 31C95.2016 33.0267 95.5482 34.92 96.2416 36.68C96.9616 38.44 97.9616 39.9733 99.2416 41.28C100.522 42.56 102.028 43.5733 103.762 44.32C105.495 45.04 107.375 45.4 109.402 45.4C111.455 45.4 113.335 45.04 115.042 44.32C116.775 43.5733 118.282 42.56 119.562 41.28C120.842 39.9733 121.828 38.44 122.522 36.68C123.242 34.92 123.602 33.0267 123.602 31C123.602 28.9467 123.242 27.0533 122.522 25.32C121.828 23.56 120.842 22.04 119.562 20.76C118.282 19.4533 116.775 18.44 115.042 17.72C113.335 16.9733 111.455 16.6 109.402 16.6C107.375 16.6 105.495 16.9733 103.762 17.72C102.028 18.44 100.522 19.4533 99.2416 20.76C97.9616 22.04 96.9616 23.56 96.2416 25.32C95.5482 27.0533 95.2016 28.9467 95.2016 31ZM129.912 40.6L126.392 50.96L128.712 51.8L133.112 41.8L129.912 40.6ZM151.489 17V45H154.889V17H151.489ZM162.494 17L160.094 26.2H162.294L166.294 17H162.494ZM176.189 26.08L185.309 42.4L194.429 26.08L196.509 45H199.909L196.509 15.6L185.309 35.88L174.109 15.6L170.709 45H174.109L176.189 26.08ZM216.684 17V45H220.084V17H216.684ZM218.564 20.2H224.284C226.098 20.2 227.564 20.64 228.684 21.52C229.831 22.3733 230.404 23.6667 230.404 25.4C230.404 27.1067 229.831 28.4 228.684 29.28C227.564 30.16 226.098 30.6 224.284 30.6H218.564V33.8H224.284C226.098 33.8 227.711 33.4667 229.124 32.8C230.564 32.1067 231.698 31.1333 232.524 29.88C233.378 28.6 233.804 27.1067 233.804 25.4C233.804 23.6667 233.378 22.1733 232.524 20.92C231.698 19.6667 230.564 18.7067 229.124 18.04C227.711 17.3467 226.098 17 224.284 17H218.564V20.2ZM238.598 17V45H241.998V17H238.598ZM250.283 45H264.403V41.8H250.283V45ZM250.283 20.2H264.403V17H250.283V20.2ZM250.283 31.4H263.603V28.2H250.283V31.4ZM248.403 17V45H251.803V17H248.403ZM275.395 31.2L284.995 45H289.195L279.195 31.2H275.395ZM270.395 17V45H273.795V17H270.395ZM272.275 20H277.995C279.195 20 280.249 20.2133 281.155 20.64C282.089 21.0667 282.809 21.68 283.315 22.48C283.849 23.28 284.115 24.2533 284.115 25.4C284.115 26.5467 283.849 27.52 283.315 28.32C282.809 29.12 282.089 29.7333 281.155 30.16C280.249 30.5867 279.195 30.8 277.995 30.8H272.275V33.8H277.995C279.809 33.8 281.422 33.4667 282.835 32.8C284.275 32.1067 285.409 31.1333 286.235 29.88C287.089 28.6 287.515 27.1067 287.515 25.4C287.515 23.6667 287.089 22.1733 286.235 20.92C285.409 19.6667 284.275 18.7067 282.835 18.04C281.422 17.3467 279.809 17 277.995 17H272.275V20ZM297.778 31.2L307.378 45H311.578L301.578 31.2H297.778ZM292.778 17V45H296.178V17H292.778ZM294.658 20H300.378C301.578 20 302.631 20.2133 303.538 20.64C304.471 21.0667 305.191 21.68 305.698 22.48C306.231 23.28 306.498 24.2533 306.498 25.4C306.498 26.5467 306.231 27.52 305.698 28.32C305.191 29.12 304.471 29.7333 303.538 30.16C302.631 30.5867 301.578 30.8 300.378 30.8H294.658V33.8H300.378C302.191 33.8 303.805 33.4667 305.218 32.8C306.658 32.1067 307.791 31.1333 308.618 29.88C309.471 28.6 309.898 27.1067 309.898 25.4C309.898 23.6667 309.471 22.1733 308.618 20.92C307.791 19.6667 306.658 18.7067 305.218 18.04C303.805 17.3467 302.191 17 300.378 17H294.658V20ZM317.041 45H331.161V41.8H317.041V45ZM317.041 20.2H331.161V17H317.041V20.2ZM317.041 31.4H330.361V28.2H317.041V31.4ZM315.161 17V45H318.561V17H315.161ZM334.153 37H342.153V34H334.153V37ZM348.232 36.6H363.032L361.832 33.4H349.432L348.232 36.6ZM355.552 23.32L360.352 34.6L360.672 35.4L364.752 45H368.552L355.552 15.6L342.552 45H346.352L350.512 35.16L350.832 34.44L355.552 23.32ZM393.158 17V37.84L371.958 15.6V45H375.358V24.16L396.558 46.4V17H393.158ZM400.173 20.2H407.373V45H410.773V20.2H417.973V17H400.173V20.2ZM421.575 31C421.575 28.8933 422.028 27.0133 422.935 25.36C423.868 23.7067 425.135 22.4 426.735 21.44C428.335 20.48 430.148 20 432.175 20C434.228 20 436.042 20.48 437.615 21.44C439.215 22.4 440.468 23.7067 441.375 25.36C442.308 27.0133 442.775 28.8933 442.775 31C442.775 33.1067 442.308 34.9867 441.375 36.64C440.468 38.2933 439.215 39.6 437.615 40.56C436.042 41.52 434.228 42 432.175 42C430.148 42 428.335 41.52 426.735 40.56C425.135 39.6 423.868 38.2933 422.935 36.64C422.028 34.9867 421.575 33.1067 421.575 31ZM417.975 31C417.975 33.0267 418.322 34.92 419.015 36.68C419.735 38.44 420.735 39.9733 422.015 41.28C423.295 42.56 424.802 43.5733 426.535 44.32C428.268 45.04 430.148 45.4 432.175 45.4C434.228 45.4 436.108 45.04 437.815 44.32C439.548 43.5733 441.055 42.56 442.335 41.28C443.615 39.9733 444.602 38.44 445.295 36.68C446.015 34.92 446.375 33.0267 446.375 31C446.375 28.9467 446.015 27.0533 445.295 25.32C444.602 23.56 443.615 22.04 442.335 20.76C441.055 19.4533 439.548 18.44 437.815 17.72C436.108 16.9733 434.228 16.6 432.175 16.6C430.148 16.6 428.268 16.9733 426.535 17.72C424.802 18.44 423.295 19.4533 422.015 20.76C420.735 22.04 419.735 23.56 419.015 25.32C418.322 27.0533 417.975 28.9467 417.975 31ZM451.177 17V45H454.577V17H451.177ZM482.181 17V37.84L460.981 15.6V45H464.381V24.16L485.581 46.4V17H482.181ZM493.877 45H507.997V41.8H493.877V45ZM493.877 20.2H507.997V17H493.877V20.2ZM493.877 31.4H507.197V28.2H493.877V31.4ZM491.997 17V45H495.397V17H491.997ZM140.048 94.6H154.848L153.648 91.4H141.248L140.048 94.6ZM147.368 81.32L152.168 92.6L152.488 93.4L156.568 103H160.368L147.368 73.6L134.368 103H138.168L142.328 93.16L142.648 92.44L147.368 81.32ZM175.766 75V103H179.166V75H175.766ZM184.166 103C186.886 103 189.3 102.413 191.406 101.24C193.513 100.067 195.166 98.44 196.366 96.36C197.566 94.2533 198.166 91.8 198.166 89C198.166 86.2 197.566 83.76 196.366 81.68C195.166 79.5733 193.513 77.9333 191.406 76.76C189.3 75.5867 186.886 75 184.166 75H177.646V78.4H184.166C185.74 78.4 187.18 78.6533 188.486 79.16C189.793 79.64 190.913 80.3467 191.846 81.28C192.78 82.1867 193.5 83.2933 194.006 84.6C194.513 85.9067 194.766 87.3733 194.766 89C194.766 90.6267 194.513 92.0933 194.006 93.4C193.5 94.7067 192.78 95.8267 191.846 96.76C190.913 97.6667 189.793 98.3733 188.486 98.88C187.18 99.36 185.74 99.6 184.166 99.6H177.646V103H184.166ZM204.834 103H218.954V99.8H204.834V103ZM204.834 78.2H218.954V75H204.834V78.2ZM204.834 89.4H218.154V86.2H204.834V89.4ZM202.954 75V103H206.354V75H202.954ZM234.946 96.68L225.746 75H221.946L234.946 104.4L247.946 75H244.146L234.946 96.68ZM253.232 103H267.352V99.8H253.232V103ZM253.232 78.2H267.352V75H253.232V78.2ZM253.232 89.4H266.552V86.2H253.232V89.4ZM251.352 75V103H254.752V75H251.352ZM273.345 75V103H287.745V99.8H276.745V75H273.345ZM292.141 89C292.141 86.8933 292.595 85.0133 293.501 83.36C294.435 81.7067 295.701 80.4 297.301 79.44C298.901 78.48 300.715 78 302.741 78C304.795 78 306.608 78.48 308.181 79.44C309.781 80.4 311.035 81.7067 311.941 83.36C312.875 85.0133 313.341 86.8933 313.341 89C313.341 91.1067 312.875 92.9867 311.941 94.64C311.035 96.2933 309.781 97.6 308.181 98.56C306.608 99.52 304.795 100 302.741 100C300.715 100 298.901 99.52 297.301 98.56C295.701 97.6 294.435 96.2933 293.501 94.64C292.595 92.9867 292.141 91.1067 292.141 89ZM288.541 89C288.541 91.0267 288.888 92.92 289.581 94.68C290.301 96.44 291.301 97.9733 292.581 99.28C293.861 100.56 295.368 101.573 297.101 102.32C298.835 103.04 300.715 103.4 302.741 103.4C304.795 103.4 306.675 103.04 308.381 102.32C310.115 101.573 311.621 100.56 312.901 99.28C314.181 97.9733 315.168 96.44 315.861 94.68C316.581 92.92 316.941 91.0267 316.941 89C316.941 86.9467 316.581 85.0533 315.861 83.32C315.168 81.56 314.181 80.04 312.901 78.76C311.621 77.4533 310.115 76.44 308.381 75.72C306.675 74.9733 304.795 74.6 302.741 74.6C300.715 74.6 298.835 74.9733 297.101 75.72C295.368 76.44 293.861 77.4533 292.581 78.76C291.301 80.04 290.301 81.56 289.581 83.32C288.888 85.0533 288.541 86.9467 288.541 89ZM321.743 75V103H325.143V75H321.743ZM323.623 78.2H329.343C331.156 78.2 332.623 78.64 333.743 79.52C334.89 80.3733 335.463 81.6667 335.463 83.4C335.463 85.1067 334.89 86.4 333.743 87.28C332.623 88.16 331.156 88.6 329.343 88.6H323.623V91.8H329.343C331.156 91.8 332.77 91.4667 334.183 90.8C335.623 90.1067 336.756 89.1333 337.583 87.88C338.436 86.6 338.863 85.1067 338.863 83.4C338.863 81.6667 338.436 80.1733 337.583 78.92C336.756 77.6667 335.623 76.7067 334.183 76.04C332.77 75.3467 331.156 75 329.343 75H323.623V78.2ZM345.537 103H359.657V99.8H345.537V103ZM345.537 78.2H359.657V75H345.537V78.2ZM345.537 89.4H358.857V86.2H345.537V89.4ZM343.657 75V103H347.057V75H343.657ZM370.649 89.2L380.249 103H384.449L374.449 89.2H370.649ZM365.649 75V103H369.049V75H365.649ZM367.529 78H373.249C374.449 78 375.503 78.2133 376.409 78.64C377.343 79.0667 378.063 79.68 378.569 80.48C379.103 81.28 379.369 82.2533 379.369 83.4C379.369 84.5467 379.103 85.52 378.569 86.32C378.063 87.12 377.343 87.7333 376.409 88.16C375.503 88.5867 374.449 88.8 373.249 88.8H367.529V91.8H373.249C375.063 91.8 376.676 91.4667 378.089 90.8C379.529 90.1067 380.663 89.1333 381.489 87.88C382.343 86.6 382.769 85.1067 382.769 83.4C382.769 81.6667 382.343 80.1733 381.489 78.92C380.663 77.6667 379.529 76.7067 378.089 76.04C376.676 75.3467 375.063 75 373.249 75H367.529V78Z"/>
</mask>
<path d="M13.2909 31.4H32.491V28.2H13.2909V31.4ZM30.211 17V45H33.611V17H30.211ZM11.4109 17V45H14.8109V17H11.4109ZM41.8847 45H56.0047V41.8H41.8847V45ZM41.8847 20.2H56.0047V17H41.8847V20.2ZM41.8847 31.4H55.2047V28.2H41.8847V31.4ZM40.0047 17V45H43.4047V17H40.0047ZM61.9969 17V45H76.3969V41.8H65.3969V17H61.9969ZM80.0047 17V45H94.4047V41.8H83.4047V17H80.0047ZM98.8016 31C98.8016 28.8933 99.2549 27.0133 100.162 25.36C101.095 23.7067 102.362 22.4 103.962 21.44C105.562 20.48 107.375 20 109.402 20C111.455 20 113.268 20.48 114.842 21.44C116.442 22.4 117.695 23.7067 118.602 25.36C119.535 27.0133 120.002 28.8933 120.002 31C120.002 33.1067 119.535 34.9867 118.602 36.64C117.695 38.2933 116.442 39.6 114.842 40.56C113.268 41.52 111.455 42 109.402 42C107.375 42 105.562 41.52 103.962 40.56C102.362 39.6 101.095 38.2933 100.162 36.64C99.2549 34.9867 98.8016 33.1067 98.8016 31ZM95.2016 31C95.2016 33.0267 95.5482 34.92 96.2416 36.68C96.9616 38.44 97.9616 39.9733 99.2416 41.28C100.522 42.56 102.028 43.5733 103.762 44.32C105.495 45.04 107.375 45.4 109.402 45.4C111.455 45.4 113.335 45.04 115.042 44.32C116.775 43.5733 118.282 42.56 119.562 41.28C120.842 39.9733 121.828 38.44 122.522 36.68C123.242 34.92 123.602 33.0267 123.602 31C123.602 28.9467 123.242 27.0533 122.522 25.32C121.828 23.56 120.842 22.04 119.562 20.76C118.282 19.4533 116.775 18.44 115.042 17.72C113.335 16.9733 111.455 16.6 109.402 16.6C107.375 16.6 105.495 16.9733 103.762 17.72C102.028 18.44 100.522 19.4533 99.2416 20.76C97.9616 22.04 96.9616 23.56 96.2416 25.32C95.5482 27.0533 95.2016 28.9467 95.2016 31ZM129.912 40.6L126.392 50.96L128.712 51.8L133.112 41.8L129.912 40.6ZM151.489 17V45H154.889V17H151.489ZM162.494 17L160.094 26.2H162.294L166.294 17H162.494ZM176.189 26.08L185.309 42.4L194.429 26.08L196.509 45H199.909L196.509 15.6L185.309 35.88L174.109 15.6L170.709 45H174.109L176.189 26.08ZM216.684 17V45H220.084V17H216.684ZM218.564 20.2H224.284C226.098 20.2 227.564 20.64 228.684 21.52C229.831 22.3733 230.404 23.6667 230.404 25.4C230.404 27.1067 229.831 28.4 228.684 29.28C227.564 30.16 226.098 30.6 224.284 30.6H218.564V33.8H224.284C226.098 33.8 227.711 33.4667 229.124 32.8C230.564 32.1067 231.698 31.1333 232.524 29.88C233.378 28.6 233.804 27.1067 233.804 25.4C233.804 23.6667 233.378 22.1733 232.524 20.92C231.698 19.6667 230.564 18.7067 229.124 18.04C227.711 17.3467 226.098 17 224.284 17H218.564V20.2ZM238.598 17V45H241.998V17H238.598ZM250.283 45H264.403V41.8H250.283V45ZM250.283 20.2H264.403V17H250.283V20.2ZM250.283 31.4H263.603V28.2H250.283V31.4ZM248.403 17V45H251.803V17H248.403ZM275.395 31.2L284.995 45H289.195L279.195 31.2H275.395ZM270.395 17V45H273.795V17H270.395ZM272.275 20H277.995C279.195 20 280.249 20.2133 281.155 20.64C282.089 21.0667 282.809 21.68 283.315 22.48C283.849 23.28 284.115 24.2533 284.115 25.4C284.115 26.5467 283.849 27.52 283.315 28.32C282.809 29.12 282.089 29.7333 281.155 30.16C280.249 30.5867 279.195 30.8 277.995 30.8H272.275V33.8H277.995C279.809 33.8 281.422 33.4667 282.835 32.8C284.275 32.1067 285.409 31.1333 286.235 29.88C287.089 28.6 287.515 27.1067 287.515 25.4C287.515 23.6667 287.089 22.1733 286.235 20.92C285.409 19.6667 284.275 18.7067 282.835 18.04C281.422 17.3467 279.809 17 277.995 17H272.275V20ZM297.778 31.2L307.378 45H311.578L301.578 31.2H297.778ZM292.778 17V45H296.178V17H292.778ZM294.658 20H300.378C301.578 20 302.631 20.2133 303.538 20.64C304.471 21.0667 305.191 21.68 305.698 22.48C306.231 23.28 306.498 24.2533 306.498 25.4C306.498 26.5467 306.231 27.52 305.698 28.32C305.191 29.12 304.471 29.7333 303.538 30.16C302.631 30.5867 301.578 30.8 300.378 30.8H294.658V33.8H300.378C302.191 33.8 303.805 33.4667 305.218 32.8C306.658 32.1067 307.791 31.1333 308.618 29.88C309.471 28.6 309.898 27.1067 309.898 25.4C309.898 23.6667 309.471 22.1733 308.618 20.92C307.791 19.6667 306.658 18.7067 305.218 18.04C303.805 17.3467 302.191 17 300.378 17H294.658V20ZM317.041 45H331.161V41.8H317.041V45ZM317.041 20.2H331.161V17H317.041V20.2ZM317.041 31.4H330.361V28.2H317.041V31.4ZM315.161 17V45H318.561V17H315.161ZM334.153 37H342.153V34H334.153V37ZM348.232 36.6H363.032L361.832 33.4H349.432L348.232 36.6ZM355.552 23.32L360.352 34.6L360.672 35.4L364.752 45H368.552L355.552 15.6L342.552 45H346.352L350.512 35.16L350.832 34.44L355.552 23.32ZM393.158 17V37.84L371.958 15.6V45H375.358V24.16L396.558 46.4V17H393.158ZM400.173 20.2H407.373V45H410.773V20.2H417.973V17H400.173V20.2ZM421.575 31C421.575 28.8933 422.028 27.0133 422.935 25.36C423.868 23.7067 425.135 22.4 426.735 21.44C428.335 20.48 430.148 20 432.175 20C434.228 20 436.042 20.48 437.615 21.44C439.215 22.4 440.468 23.7067 441.375 25.36C442.308 27.0133 442.775 28.8933 442.775 31C442.775 33.1067 442.308 34.9867 441.375 36.64C440.468 38.2933 439.215 39.6 437.615 40.56C436.042 41.52 434.228 42 432.175 42C430.148 42 428.335 41.52 426.735 40.56C425.135 39.6 423.868 38.2933 422.935 36.64C422.028 34.9867 421.575 33.1067 421.575 31ZM417.975 31C417.975 33.0267 418.322 34.92 419.015 36.68C419.735 38.44 420.735 39.9733 422.015 41.28C423.295 42.56 424.802 43.5733 426.535 44.32C428.268 45.04 430.148 45.4 432.175 45.4C434.228 45.4 436.108 45.04 437.815 44.32C439.548 43.5733 441.055 42.56 442.335 41.28C443.615 39.9733 444.602 38.44 445.295 36.68C446.015 34.92 446.375 33.0267 446.375 31C446.375 28.9467 446.015 27.0533 445.295 25.32C444.602 23.56 443.615 22.04 442.335 20.76C441.055 19.4533 439.548 18.44 437.815 17.72C436.108 16.9733 434.228 16.6 432.175 16.6C430.148 16.6 428.268 16.9733 426.535 17.72C424.802 18.44 423.295 19.4533 422.015 20.76C420.735 22.04 419.735 23.56 419.015 25.32C418.322 27.0533 417.975 28.9467 417.975 31ZM451.177 17V45H454.577V17H451.177ZM482.181 17V37.84L460.981 15.6V45H464.381V24.16L485.581 46.4V17H482.181ZM493.877 45H507.997V41.8H493.877V45ZM493.877 20.2H507.997V17H493.877V20.2ZM493.877 31.4H507.197V28.2H493.877V31.4ZM491.997 17V45H495.397V17H491.997ZM140.048 94.6H154.848L153.648 91.4H141.248L140.048 94.6ZM147.368 81.32L152.168 92.6L152.488 93.4L156.568 103H160.368L147.368 73.6L134.368 103H138.168L142.328 93.16L142.648 92.44L147.368 81.32ZM175.766 75V103H179.166V75H175.766ZM184.166 103C186.886 103 189.3 102.413 191.406 101.24C193.513 100.067 195.166 98.44 196.366 96.36C197.566 94.2533 198.166 91.8 198.166 89C198.166 86.2 197.566 83.76 196.366 81.68C195.166 79.5733 193.513 77.9333 191.406 76.76C189.3 75.5867 186.886 75 184.166 75H177.646V78.4H184.166C185.74 78.4 187.18 78.6533 188.486 79.16C189.793 79.64 190.913 80.3467 191.846 81.28C192.78 82.1867 193.5 83.2933 194.006 84.6C194.513 85.9067 194.766 87.3733 194.766 89C194.766 90.6267 194.513 92.0933 194.006 93.4C193.5 94.7067 192.78 95.8267 191.846 96.76C190.913 97.6667 189.793 98.3733 188.486 98.88C187.18 99.36 185.74 99.6 184.166 99.6H177.646V103H184.166ZM204.834 103H218.954V99.8H204.834V103ZM204.834 78.2H218.954V75H204.834V78.2ZM204.834 89.4H218.154V86.2H204.834V89.4ZM202.954 75V103H206.354V75H202.954ZM234.946 96.68L225.746 75H221.946L234.946 104.4L247.946 75H244.146L234.946 96.68ZM253.232 103H267.352V99.8H253.232V103ZM253.232 78.2H267.352V75H253.232V78.2ZM253.232 89.4H266.552V86.2H253.232V89.4ZM251.352 75V103H254.752V75H251.352ZM273.345 75V103H287.745V99.8H276.745V75H273.345ZM292.141 89C292.141 86.8933 292.595 85.0133 293.501 83.36C294.435 81.7067 295.701 80.4 297.301 79.44C298.901 78.48 300.715 78 302.741 78C304.795 78 306.608 78.48 308.181 79.44C309.781 80.4 311.035 81.7067 311.941 83.36C312.875 85.0133 313.341 86.8933 313.341 89C313.341 91.1067 312.875 92.9867 311.941 94.64C311.035 96.2933 309.781 97.6 308.181 98.56C306.608 99.52 304.795 100 302.741 100C300.715 100 298.901 99.52 297.301 98.56C295.701 97.6 294.435 96.2933 293.501 94.64C292.595 92.9867 292.141 91.1067 292.141 89ZM288.541 89C288.541 91.0267 288.888 92.92 289.581 94.68C290.301 96.44 291.301 97.9733 292.581 99.28C293.861 100.56 295.368 101.573 297.101 102.32C298.835 103.04 300.715 103.4 302.741 103.4C304.795 103.4 306.675 103.04 308.381 102.32C310.115 101.573 311.621 100.56 312.901 99.28C314.181 97.9733 315.168 96.44 315.861 94.68C316.581 92.92 316.941 91.0267 316.941 89C316.941 86.9467 316.581 85.0533 315.861 83.32C315.168 81.56 314.181 80.04 312.901 78.76C311.621 77.4533 310.115 76.44 308.381 75.72C306.675 74.9733 304.795 74.6 302.741 74.6C300.715 74.6 298.835 74.9733 297.101 75.72C295.368 76.44 293.861 77.4533 292.581 78.76C291.301 80.04 290.301 81.56 289.581 83.32C288.888 85.0533 288.541 86.9467 288.541 89ZM321.743 75V103H325.143V75H321.743ZM323.623 78.2H329.343C331.156 78.2 332.623 78.64 333.743 79.52C334.89 80.3733 335.463 81.6667 335.463 83.4C335.463 85.1067 334.89 86.4 333.743 87.28C332.623 88.16 331.156 88.6 329.343 88.6H323.623V91.8H329.343C331.156 91.8 332.77 91.4667 334.183 90.8C335.623 90.1067 336.756 89.1333 337.583 87.88C338.436 86.6 338.863 85.1067 338.863 83.4C338.863 81.6667 338.436 80.1733 337.583 78.92C336.756 77.6667 335.623 76.7067 334.183 76.04C332.77 75.3467 331.156 75 329.343 75H323.623V78.2ZM345.537 103H359.657V99.8H345.537V103ZM345.537 78.2H359.657V75H345.537V78.2ZM345.537 89.4H358.857V86.2H345.537V89.4ZM343.657 75V103H347.057V75H343.657ZM370.649 89.2L380.249 103H384.449L374.449 89.2H370.649ZM365.649 75V103H369.049V75H365.649ZM367.529 78H373.249C374.449 78 375.503 78.2133 376.409 78.64C377.343 79.0667 378.063 79.68 378.569 80.48C379.103 81.28 379.369 82.2533 379.369 83.4C379.369 84.5467 379.103 85.52 378.569 86.32C378.063 87.12 377.343 87.7333 376.409 88.16C375.503 88.5867 374.449 88.8 373.249 88.8H367.529V91.8H373.249C375.063 91.8 376.676 91.4667 378.089 90.8C379.529 90.1067 380.663 89.1333 381.489 87.88C382.343 86.6 382.769 85.1067 382.769 83.4C382.769 81.6667 382.343 80.1733 381.489 78.92C380.663 77.6667 379.529 76.7067 378.089 76.04C376.676 75.3467 375.063 75 373.249 75H367.529V78Z" stroke="url(#paint0_linear_240_100)" stroke-width="4" mask="url(#path-1-outside-1_240_100)"/>
<g filter="url(#filter0_f_240_100)">
<mask id="path-2-outside-2_240_100" maskUnits="userSpaceOnUse" x="9.41095" y="8.60001" width="501" height="101" fill="black">
<rect fill="white" x="9.41095" y="8.60001" width="501" height="101"/>
<path d="M13.2909 31.4H32.491V28.2H13.2909V31.4ZM30.211 17V45H33.611V17H30.211ZM11.4109 17V45H14.8109V17H11.4109ZM41.8847 45H56.0047V41.8H41.8847V45ZM41.8847 20.2H56.0047V17H41.8847V20.2ZM41.8847 31.4H55.2047V28.2H41.8847V31.4ZM40.0047 17V45H43.4047V17H40.0047ZM61.9969 17V45H76.3969V41.8H65.3969V17H61.9969ZM80.0047 17V45H94.4047V41.8H83.4047V17H80.0047ZM98.8016 31C98.8016 28.8933 99.2549 27.0133 100.162 25.36C101.095 23.7067 102.362 22.4 103.962 21.44C105.562 20.48 107.375 20 109.402 20C111.455 20 113.268 20.48 114.842 21.44C116.442 22.4 117.695 23.7067 118.602 25.36C119.535 27.0133 120.002 28.8933 120.002 31C120.002 33.1067 119.535 34.9867 118.602 36.64C117.695 38.2933 116.442 39.6 114.842 40.56C113.268 41.52 111.455 42 109.402 42C107.375 42 105.562 41.52 103.962 40.56C102.362 39.6 101.095 38.2933 100.162 36.64C99.2549 34.9867 98.8016 33.1067 98.8016 31ZM95.2016 31C95.2016 33.0267 95.5482 34.92 96.2416 36.68C96.9616 38.44 97.9616 39.9733 99.2416 41.28C100.522 42.56 102.028 43.5733 103.762 44.32C105.495 45.04 107.375 45.4 109.402 45.4C111.455 45.4 113.335 45.04 115.042 44.32C116.775 43.5733 118.282 42.56 119.562 41.28C120.842 39.9733 121.828 38.44 122.522 36.68C123.242 34.92 123.602 33.0267 123.602 31C123.602 28.9467 123.242 27.0533 122.522 25.32C121.828 23.56 120.842 22.04 119.562 20.76C118.282 19.4533 116.775 18.44 115.042 17.72C113.335 16.9733 111.455 16.6 109.402 16.6C107.375 16.6 105.495 16.9733 103.762 17.72C102.028 18.44 100.522 19.4533 99.2416 20.76C97.9616 22.04 96.9616 23.56 96.2416 25.32C95.5482 27.0533 95.2016 28.9467 95.2016 31ZM129.912 40.6L126.392 50.96L128.712 51.8L133.112 41.8L129.912 40.6ZM151.489 17V45H154.889V17H151.489ZM162.494 17L160.094 26.2H162.294L166.294 17H162.494ZM176.189 26.08L185.309 42.4L194.429 26.08L196.509 45H199.909L196.509 15.6L185.309 35.88L174.109 15.6L170.709 45H174.109L176.189 26.08ZM216.684 17V45H220.084V17H216.684ZM218.564 20.2H224.284C226.098 20.2 227.564 20.64 228.684 21.52C229.831 22.3733 230.404 23.6667 230.404 25.4C230.404 27.1067 229.831 28.4 228.684 29.28C227.564 30.16 226.098 30.6 224.284 30.6H218.564V33.8H224.284C226.098 33.8 227.711 33.4667 229.124 32.8C230.564 32.1067 231.698 31.1333 232.524 29.88C233.378 28.6 233.804 27.1067 233.804 25.4C233.804 23.6667 233.378 22.1733 232.524 20.92C231.698 19.6667 230.564 18.7067 229.124 18.04C227.711 17.3467 226.098 17 224.284 17H218.564V20.2ZM238.598 17V45H241.998V17H238.598ZM250.283 45H264.403V41.8H250.283V45ZM250.283 20.2H264.403V17H250.283V20.2ZM250.283 31.4H263.603V28.2H250.283V31.4ZM248.403 17V45H251.803V17H248.403ZM275.395 31.2L284.995 45H289.195L279.195 31.2H275.395ZM270.395 17V45H273.795V17H270.395ZM272.275 20H277.995C279.195 20 280.249 20.2133 281.155 20.64C282.089 21.0667 282.809 21.68 283.315 22.48C283.849 23.28 284.115 24.2533 284.115 25.4C284.115 26.5467 283.849 27.52 283.315 28.32C282.809 29.12 282.089 29.7333 281.155 30.16C280.249 30.5867 279.195 30.8 277.995 30.8H272.275V33.8H277.995C279.809 33.8 281.422 33.4667 282.835 32.8C284.275 32.1067 285.409 31.1333 286.235 29.88C287.089 28.6 287.515 27.1067 287.515 25.4C287.515 23.6667 287.089 22.1733 286.235 20.92C285.409 19.6667 284.275 18.7067 282.835 18.04C281.422 17.3467 279.809 17 277.995 17H272.275V20ZM297.778 31.2L307.378 45H311.578L301.578 31.2H297.778ZM292.778 17V45H296.178V17H292.778ZM294.658 20H300.378C301.578 20 302.631 20.2133 303.538 20.64C304.471 21.0667 305.191 21.68 305.698 22.48C306.231 23.28 306.498 24.2533 306.498 25.4C306.498 26.5467 306.231 27.52 305.698 28.32C305.191 29.12 304.471 29.7333 303.538 30.16C302.631 30.5867 301.578 30.8 300.378 30.8H294.658V33.8H300.378C302.191 33.8 303.805 33.4667 305.218 32.8C306.658 32.1067 307.791 31.1333 308.618 29.88C309.471 28.6 309.898 27.1067 309.898 25.4C309.898 23.6667 309.471 22.1733 308.618 20.92C307.791 19.6667 306.658 18.7067 305.218 18.04C303.805 17.3467 302.191 17 300.378 17H294.658V20ZM317.041 45H331.161V41.8H317.041V45ZM317.041 20.2H331.161V17H317.041V20.2ZM317.041 31.4H330.361V28.2H317.041V31.4ZM315.161 17V45H318.561V17H315.161ZM334.153 37H342.153V34H334.153V37ZM348.232 36.6H363.032L361.832 33.4H349.432L348.232 36.6ZM355.552 23.32L360.352 34.6L360.672 35.4L364.752 45H368.552L355.552 15.6L342.552 45H346.352L350.512 35.16L350.832 34.44L355.552 23.32ZM393.158 17V37.84L371.958 15.6V45H375.358V24.16L396.558 46.4V17H393.158ZM400.173 20.2H407.373V45H410.773V20.2H417.973V17H400.173V20.2ZM421.575 31C421.575 28.8933 422.028 27.0133 422.935 25.36C423.868 23.7067 425.135 22.4 426.735 21.44C428.335 20.48 430.148 20 432.175 20C434.228 20 436.042 20.48 437.615 21.44C439.215 22.4 440.468 23.7067 441.375 25.36C442.308 27.0133 442.775 28.8933 442.775 31C442.775 33.1067 442.308 34.9867 441.375 36.64C440.468 38.2933 439.215 39.6 437.615 40.56C436.042 41.52 434.228 42 432.175 42C430.148 42 428.335 41.52 426.735 40.56C425.135 39.6 423.868 38.2933 422.935 36.64C422.028 34.9867 421.575 33.1067 421.575 31ZM417.975 31C417.975 33.0267 418.322 34.92 419.015 36.68C419.735 38.44 420.735 39.9733 422.015 41.28C423.295 42.56 424.802 43.5733 426.535 44.32C428.268 45.04 430.148 45.4 432.175 45.4C434.228 45.4 436.108 45.04 437.815 44.32C439.548 43.5733 441.055 42.56 442.335 41.28C443.615 39.9733 444.602 38.44 445.295 36.68C446.015 34.92 446.375 33.0267 446.375 31C446.375 28.9467 446.015 27.0533 445.295 25.32C444.602 23.56 443.615 22.04 442.335 20.76C441.055 19.4533 439.548 18.44 437.815 17.72C436.108 16.9733 434.228 16.6 432.175 16.6C430.148 16.6 428.268 16.9733 426.535 17.72C424.802 18.44 423.295 19.4533 422.015 20.76C420.735 22.04 419.735 23.56 419.015 25.32C418.322 27.0533 417.975 28.9467 417.975 31ZM451.177 17V45H454.577V17H451.177ZM482.181 17V37.84L460.981 15.6V45H464.381V24.16L485.581 46.4V17H482.181ZM493.877 45H507.997V41.8H493.877V45ZM493.877 20.2H507.997V17H493.877V20.2ZM493.877 31.4H507.197V28.2H493.877V31.4ZM491.997 17V45H495.397V17H491.997ZM140.048 94.6H154.848L153.648 91.4H141.248L140.048 94.6ZM147.368 81.32L152.168 92.6L152.488 93.4L156.568 103H160.368L147.368 73.6L134.368 103H138.168L142.328 93.16L142.648 92.44L147.368 81.32ZM175.766 75V103H179.166V75H175.766ZM184.166 103C186.886 103 189.3 102.413 191.406 101.24C193.513 100.067 195.166 98.44 196.366 96.36C197.566 94.2533 198.166 91.8 198.166 89C198.166 86.2 197.566 83.76 196.366 81.68C195.166 79.5733 193.513 77.9333 191.406 76.76C189.3 75.5867 186.886 75 184.166 75H177.646V78.4H184.166C185.74 78.4 187.18 78.6533 188.486 79.16C189.793 79.64 190.913 80.3467 191.846 81.28C192.78 82.1867 193.5 83.2933 194.006 84.6C194.513 85.9067 194.766 87.3733 194.766 89C194.766 90.6267 194.513 92.0933 194.006 93.4C193.5 94.7067 192.78 95.8267 191.846 96.76C190.913 97.6667 189.793 98.3733 188.486 98.88C187.18 99.36 185.74 99.6 184.166 99.6H177.646V103H184.166ZM204.834 103H218.954V99.8H204.834V103ZM204.834 78.2H218.954V75H204.834V78.2ZM204.834 89.4H218.154V86.2H204.834V89.4ZM202.954 75V103H206.354V75H202.954ZM234.946 96.68L225.746 75H221.946L234.946 104.4L247.946 75H244.146L234.946 96.68ZM253.232 103H267.352V99.8H253.232V103ZM253.232 78.2H267.352V75H253.232V78.2ZM253.232 89.4H266.552V86.2H253.232V89.4ZM251.352 75V103H254.752V75H251.352ZM273.345 75V103H287.745V99.8H276.745V75H273.345ZM292.141 89C292.141 86.8933 292.595 85.0133 293.501 83.36C294.435 81.7067 295.701 80.4 297.301 79.44C298.901 78.48 300.715 78 302.741 78C304.795 78 306.608 78.48 308.181 79.44C309.781 80.4 311.035 81.7067 311.941 83.36C312.875 85.0133 313.341 86.8933 313.341 89C313.341 91.1067 312.875 92.9867 311.941 94.64C311.035 96.2933 309.781 97.6 308.181 98.56C306.608 99.52 304.795 100 302.741 100C300.715 100 298.901 99.52 297.301 98.56C295.701 97.6 294.435 96.2933 293.501 94.64C292.595 92.9867 292.141 91.1067 292.141 89ZM288.541 89C288.541 91.0267 288.888 92.92 289.581 94.68C290.301 96.44 291.301 97.9733 292.581 99.28C293.861 100.56 295.368 101.573 297.101 102.32C298.835 103.04 300.715 103.4 302.741 103.4C304.795 103.4 306.675 103.04 308.381 102.32C310.115 101.573 311.621 100.56 312.901 99.28C314.181 97.9733 315.168 96.44 315.861 94.68C316.581 92.92 316.941 91.0267 316.941 89C316.941 86.9467 316.581 85.0533 315.861 83.32C315.168 81.56 314.181 80.04 312.901 78.76C311.621 77.4533 310.115 76.44 308.381 75.72C306.675 74.9733 304.795 74.6 302.741 74.6C300.715 74.6 298.835 74.9733 297.101 75.72C295.368 76.44 293.861 77.4533 292.581 78.76C291.301 80.04 290.301 81.56 289.581 83.32C288.888 85.0533 288.541 86.9467 288.541 89ZM321.743 75V103H325.143V75H321.743ZM323.623 78.2H329.343C331.156 78.2 332.623 78.64 333.743 79.52C334.89 80.3733 335.463 81.6667 335.463 83.4C335.463 85.1067 334.89 86.4 333.743 87.28C332.623 88.16 331.156 88.6 329.343 88.6H323.623V91.8H329.343C331.156 91.8 332.77 91.4667 334.183 90.8C335.623 90.1067 336.756 89.1333 337.583 87.88C338.436 86.6 338.863 85.1067 338.863 83.4C338.863 81.6667 338.436 80.1733 337.583 78.92C336.756 77.6667 335.623 76.7067 334.183 76.04C332.77 75.3467 331.156 75 329.343 75H323.623V78.2ZM345.537 103H359.657V99.8H345.537V103ZM345.537 78.2H359.657V75H345.537V78.2ZM345.537 89.4H358.857V86.2H345.537V89.4ZM343.657 75V103H347.057V75H343.657ZM370.649 89.2L380.249 103H384.449L374.449 89.2H370.649ZM365.649 75V103H369.049V75H365.649ZM367.529 78H373.249C374.449 78 375.503 78.2133 376.409 78.64C377.343 79.0667 378.063 79.68 378.569 80.48C379.103 81.28 379.369 82.2533 379.369 83.4C379.369 84.5467 379.103 85.52 378.569 86.32C378.063 87.12 377.343 87.7333 376.409 88.16C375.503 88.5867 374.449 88.8 373.249 88.8H367.529V91.8H373.249C375.063 91.8 376.676 91.4667 378.089 90.8C379.529 90.1067 380.663 89.1333 381.489 87.88C382.343 86.6 382.769 85.1067 382.769 83.4C382.769 81.6667 382.343 80.1733 381.489 78.92C380.663 77.6667 379.529 76.7067 378.089 76.04C376.676 75.3467 375.063 75 373.249 75H367.529V78Z"/>
</mask>
<path d="M13.2909 31.4H32.491V28.2H13.2909V31.4ZM30.211 17V45H33.611V17H30.211ZM11.4109 17V45H14.8109V17H11.4109ZM41.8847 45H56.0047V41.8H41.8847V45ZM41.8847 20.2H56.0047V17H41.8847V20.2ZM41.8847 31.4H55.2047V28.2H41.8847V31.4ZM40.0047 17V45H43.4047V17H40.0047ZM61.9969 17V45H76.3969V41.8H65.3969V17H61.9969ZM80.0047 17V45H94.4047V41.8H83.4047V17H80.0047ZM98.8016 31C98.8016 28.8933 99.2549 27.0133 100.162 25.36C101.095 23.7067 102.362 22.4 103.962 21.44C105.562 20.48 107.375 20 109.402 20C111.455 20 113.268 20.48 114.842 21.44C116.442 22.4 117.695 23.7067 118.602 25.36C119.535 27.0133 120.002 28.8933 120.002 31C120.002 33.1067 119.535 34.9867 118.602 36.64C117.695 38.2933 116.442 39.6 114.842 40.56C113.268 41.52 111.455 42 109.402 42C107.375 42 105.562 41.52 103.962 40.56C102.362 39.6 101.095 38.2933 100.162 36.64C99.2549 34.9867 98.8016 33.1067 98.8016 31ZM95.2016 31C95.2016 33.0267 95.5482 34.92 96.2416 36.68C96.9616 38.44 97.9616 39.9733 99.2416 41.28C100.522 42.56 102.028 43.5733 103.762 44.32C105.495 45.04 107.375 45.4 109.402 45.4C111.455 45.4 113.335 45.04 115.042 44.32C116.775 43.5733 118.282 42.56 119.562 41.28C120.842 39.9733 121.828 38.44 122.522 36.68C123.242 34.92 123.602 33.0267 123.602 31C123.602 28.9467 123.242 27.0533 122.522 25.32C121.828 23.56 120.842 22.04 119.562 20.76C118.282 19.4533 116.775 18.44 115.042 17.72C113.335 16.9733 111.455 16.6 109.402 16.6C107.375 16.6 105.495 16.9733 103.762 17.72C102.028 18.44 100.522 19.4533 99.2416 20.76C97.9616 22.04 96.9616 23.56 96.2416 25.32C95.5482 27.0533 95.2016 28.9467 95.2016 31ZM129.912 40.6L126.392 50.96L128.712 51.8L133.112 41.8L129.912 40.6ZM151.489 17V45H154.889V17H151.489ZM162.494 17L160.094 26.2H162.294L166.294 17H162.494ZM176.189 26.08L185.309 42.4L194.429 26.08L196.509 45H199.909L196.509 15.6L185.309 35.88L174.109 15.6L170.709 45H174.109L176.189 26.08ZM216.684 17V45H220.084V17H216.684ZM218.564 20.2H224.284C226.098 20.2 227.564 20.64 228.684 21.52C229.831 22.3733 230.404 23.6667 230.404 25.4C230.404 27.1067 229.831 28.4 228.684 29.28C227.564 30.16 226.098 30.6 224.284 30.6H218.564V33.8H224.284C226.098 33.8 227.711 33.4667 229.124 32.8C230.564 32.1067 231.698 31.1333 232.524 29.88C233.378 28.6 233.804 27.1067 233.804 25.4C233.804 23.6667 233.378 22.1733 232.524 20.92C231.698 19.6667 230.564 18.7067 229.124 18.04C227.711 17.3467 226.098 17 224.284 17H218.564V20.2ZM238.598 17V45H241.998V17H238.598ZM250.283 45H264.403V41.8H250.283V45ZM250.283 20.2H264.403V17H250.283V20.2ZM250.283 31.4H263.603V28.2H250.283V31.4ZM248.403 17V45H251.803V17H248.403ZM275.395 31.2L284.995 45H289.195L279.195 31.2H275.395ZM270.395 17V45H273.795V17H270.395ZM272.275 20H277.995C279.195 20 280.249 20.2133 281.155 20.64C282.089 21.0667 282.809 21.68 283.315 22.48C283.849 23.28 284.115 24.2533 284.115 25.4C284.115 26.5467 283.849 27.52 283.315 28.32C282.809 29.12 282.089 29.7333 281.155 30.16C280.249 30.5867 279.195 30.8 277.995 30.8H272.275V33.8H277.995C279.809 33.8 281.422 33.4667 282.835 32.8C284.275 32.1067 285.409 31.1333 286.235 29.88C287.089 28.6 287.515 27.1067 287.515 25.4C287.515 23.6667 287.089 22.1733 286.235 20.92C285.409 19.6667 284.275 18.7067 282.835 18.04C281.422 17.3467 279.809 17 277.995 17H272.275V20ZM297.778 31.2L307.378 45H311.578L301.578 31.2H297.778ZM292.778 17V45H296.178V17H292.778ZM294.658 20H300.378C301.578 20 302.631 20.2133 303.538 20.64C304.471 21.0667 305.191 21.68 305.698 22.48C306.231 23.28 306.498 24.2533 306.498 25.4C306.498 26.5467 306.231 27.52 305.698 28.32C305.191 29.12 304.471 29.7333 303.538 30.16C302.631 30.5867 301.578 30.8 300.378 30.8H294.658V33.8H300.378C302.191 33.8 303.805 33.4667 305.218 32.8C306.658 32.1067 307.791 31.1333 308.618 29.88C309.471 28.6 309.898 27.1067 309.898 25.4C309.898 23.6667 309.471 22.1733 308.618 20.92C307.791 19.6667 306.658 18.7067 305.218 18.04C303.805 17.3467 302.191 17 300.378 17H294.658V20ZM317.041 45H331.161V41.8H317.041V45ZM317.041 20.2H331.161V17H317.041V20.2ZM317.041 31.4H330.361V28.2H317.041V31.4ZM315.161 17V45H318.561V17H315.161ZM334.153 37H342.153V34H334.153V37ZM348.232 36.6H363.032L361.832 33.4H349.432L348.232 36.6ZM355.552 23.32L360.352 34.6L360.672 35.4L364.752 45H368.552L355.552 15.6L342.552 45H346.352L350.512 35.16L350.832 34.44L355.552 23.32ZM393.158 17V37.84L371.958 15.6V45H375.358V24.16L396.558 46.4V17H393.158ZM400.173 20.2H407.373V45H410.773V20.2H417.973V17H400.173V20.2ZM421.575 31C421.575 28.8933 422.028 27.0133 422.935 25.36C423.868 23.7067 425.135 22.4 426.735 21.44C428.335 20.48 430.148 20 432.175 20C434.228 20 436.042 20.48 437.615 21.44C439.215 22.4 440.468 23.7067 441.375 25.36C442.308 27.0133 442.775 28.8933 442.775 31C442.775 33.1067 442.308 34.9867 441.375 36.64C440.468 38.2933 439.215 39.6 437.615 40.56C436.042 41.52 434.228 42 432.175 42C430.148 42 428.335 41.52 426.735 40.56C425.135 39.6 423.868 38.2933 422.935 36.64C422.028 34.9867 421.575 33.1067 421.575 31ZM417.975 31C417.975 33.0267 418.322 34.92 419.015 36.68C419.735 38.44 420.735 39.9733 422.015 41.28C423.295 42.56 424.802 43.5733 426.535 44.32C428.268 45.04 430.148 45.4 432.175 45.4C434.228 45.4 436.108 45.04 437.815 44.32C439.548 43.5733 441.055 42.56 442.335 41.28C443.615 39.9733 444.602 38.44 445.295 36.68C446.015 34.92 446.375 33.0267 446.375 31C446.375 28.9467 446.015 27.0533 445.295 25.32C444.602 23.56 443.615 22.04 442.335 20.76C441.055 19.4533 439.548 18.44 437.815 17.72C436.108 16.9733 434.228 16.6 432.175 16.6C430.148 16.6 428.268 16.9733 426.535 17.72C424.802 18.44 423.295 19.4533 422.015 20.76C420.735 22.04 419.735 23.56 419.015 25.32C418.322 27.0533 417.975 28.9467 417.975 31ZM451.177 17V45H454.577V17H451.177ZM482.181 17V37.84L460.981 15.6V45H464.381V24.16L485.581 46.4V17H482.181ZM493.877 45H507.997V41.8H493.877V45ZM493.877 20.2H507.997V17H493.877V20.2ZM493.877 31.4H507.197V28.2H493.877V31.4ZM491.997 17V45H495.397V17H491.997ZM140.048 94.6H154.848L153.648 91.4H141.248L140.048 94.6ZM147.368 81.32L152.168 92.6L152.488 93.4L156.568 103H160.368L147.368 73.6L134.368 103H138.168L142.328 93.16L142.648 92.44L147.368 81.32ZM175.766 75V103H179.166V75H175.766ZM184.166 103C186.886 103 189.3 102.413 191.406 101.24C193.513 100.067 195.166 98.44 196.366 96.36C197.566 94.2533 198.166 91.8 198.166 89C198.166 86.2 197.566 83.76 196.366 81.68C195.166 79.5733 193.513 77.9333 191.406 76.76C189.3 75.5867 186.886 75 184.166 75H177.646V78.4H184.166C185.74 78.4 187.18 78.6533 188.486 79.16C189.793 79.64 190.913 80.3467 191.846 81.28C192.78 82.1867 193.5 83.2933 194.006 84.6C194.513 85.9067 194.766 87.3733 194.766 89C194.766 90.6267 194.513 92.0933 194.006 93.4C193.5 94.7067 192.78 95.8267 191.846 96.76C190.913 97.6667 189.793 98.3733 188.486 98.88C187.18 99.36 185.74 99.6 184.166 99.6H177.646V103H184.166ZM204.834 103H218.954V99.8H204.834V103ZM204.834 78.2H218.954V75H204.834V78.2ZM204.834 89.4H218.154V86.2H204.834V89.4ZM202.954 75V103H206.354V75H202.954ZM234.946 96.68L225.746 75H221.946L234.946 104.4L247.946 75H244.146L234.946 96.68ZM253.232 103H267.352V99.8H253.232V103ZM253.232 78.2H267.352V75H253.232V78.2ZM253.232 89.4H266.552V86.2H253.232V89.4ZM251.352 75V103H254.752V75H251.352ZM273.345 75V103H287.745V99.8H276.745V75H273.345ZM292.141 89C292.141 86.8933 292.595 85.0133 293.501 83.36C294.435 81.7067 295.701 80.4 297.301 79.44C298.901 78.48 300.715 78 302.741 78C304.795 78 306.608 78.48 308.181 79.44C309.781 80.4 311.035 81.7067 311.941 83.36C312.875 85.0133 313.341 86.8933 313.341 89C313.341 91.1067 312.875 92.9867 311.941 94.64C311.035 96.2933 309.781 97.6 308.181 98.56C306.608 99.52 304.795 100 302.741 100C300.715 100 298.901 99.52 297.301 98.56C295.701 97.6 294.435 96.2933 293.501 94.64C292.595 92.9867 292.141 91.1067 292.141 89ZM288.541 89C288.541 91.0267 288.888 92.92 289.581 94.68C290.301 96.44 291.301 97.9733 292.581 99.28C293.861 100.56 295.368 101.573 297.101 102.32C298.835 103.04 300.715 103.4 302.741 103.4C304.795 103.4 306.675 103.04 308.381 102.32C310.115 101.573 311.621 100.56 312.901 99.28C314.181 97.9733 315.168 96.44 315.861 94.68C316.581 92.92 316.941 91.0267 316.941 89C316.941 86.9467 316.581 85.0533 315.861 83.32C315.168 81.56 314.181 80.04 312.901 78.76C311.621 77.4533 310.115 76.44 308.381 75.72C306.675 74.9733 304.795 74.6 302.741 74.6C300.715 74.6 298.835 74.9733 297.101 75.72C295.368 76.44 293.861 77.4533 292.581 78.76C291.301 80.04 290.301 81.56 289.581 83.32C288.888 85.0533 288.541 86.9467 288.541 89ZM321.743 75V103H325.143V75H321.743ZM323.623 78.2H329.343C331.156 78.2 332.623 78.64 333.743 79.52C334.89 80.3733 335.463 81.6667 335.463 83.4C335.463 85.1067 334.89 86.4 333.743 87.28C332.623 88.16 331.156 88.6 329.343 88.6H323.623V91.8H329.343C331.156 91.8 332.77 91.4667 334.183 90.8C335.623 90.1067 336.756 89.1333 337.583 87.88C338.436 86.6 338.863 85.1067 338.863 83.4C338.863 81.6667 338.436 80.1733 337.583 78.92C336.756 77.6667 335.623 76.7067 334.183 76.04C332.77 75.3467 331.156 75 329.343 75H323.623V78.2ZM345.537 103H359.657V99.8H345.537V103ZM345.537 78.2H359.657V75H345.537V78.2ZM345.537 89.4H358.857V86.2H345.537V89.4ZM343.657 75V103H347.057V75H343.657ZM370.649 89.2L380.249 103H384.449L374.449 89.2H370.649ZM365.649 75V103H369.049V75H365.649ZM367.529 78H373.249C374.449 78 375.503 78.2133 376.409 78.64C377.343 79.0667 378.063 79.68 378.569 80.48C379.103 81.28 379.369 82.2533 379.369 83.4C379.369 84.5467 379.103 85.52 378.569 86.32C378.063 87.12 377.343 87.7333 376.409 88.16C375.503 88.5867 374.449 88.8 373.249 88.8H367.529V91.8H373.249C375.063 91.8 376.676 91.4667 378.089 90.8C379.529 90.1067 380.663 89.1333 381.489 87.88C382.343 86.6 382.769 85.1067 382.769 83.4C382.769 81.6667 382.343 80.1733 381.489 78.92C380.663 77.6667 379.529 76.7067 378.089 76.04C376.676 75.3467 375.063 75 373.249 75H367.529V78Z" stroke="url(#paint1_linear_240_100)" stroke-width="4" mask="url(#path-2-outside-2_240_100)"/>
</g>
<defs>
<filter id="filter0_f_240_100" x="0.41095" y="0.164963" width="518.586" height="118.181" filterUnits="userSpaceOnUse" color-interpolation-filters="sRGB">
<feFlood flood-opacity="0" result="BackgroundImageFix"/>
<feBlend mode="normal" in="SourceGraphic" in2="BackgroundImageFix" result="shape"/>
<feGaussianBlur stdDeviation="4.5" result="effect1_foregroundBlur_240_100"/>
</filter>
<linearGradient id="paint0_linear_240_100" x1="8.00001" y1="2.00006" x2="511" y2="103" gradientUnits="userSpaceOnUse">
<stop stop-color="#FF63FF"/>
<stop offset="0.510417" stop-color="#FDF808"/>
<stop offset="1" stop-color="#72FFFF"/>
</linearGradient>
<linearGradient id="paint1_linear_240_100" x1="8.00001" y1="2.00006" x2="511" y2="103" gradientUnits="userSpaceOnUse">
<stop stop-color="#FF63FF"/>
<stop offset="0.510417" stop-color="#FDF808"/>
<stop offset="1" stop-color="#72FFFF"/>
</linearGradient>
</defs>
</svg>
